<?xml version="1.0" encoding="UTF-8"?>
<svg id="Layer_2" data-name="Layer 2" xmlns="http://www.w3.org/2000/svg" viewBox="0 0 430.46 246.67">
  <defs>
    <style>
      .cls-1, .cls-2 {
        fill: #373c45;
      }

      .cls-3 {
        letter-spacing: 0em;
      }

      .cls-2 {
        font-family: HelveticaNowVar-MicroCompBold, 'Helvetica Now Var';
        font-size: 86.53px;
        font-variation-settings: 'wght' 700, 'wdth' 50, 'opsz' 4;
        font-weight: 700;
      }

      .cls-4 {
        letter-spacing: -.01em;
      }

      .cls-5 {
        letter-spacing: -.05em;
      }

      .cls-6 {
        letter-spacing: 0em;
      }

      .cls-7 {
        letter-spacing: 0em;
      }
    </style>
  </defs>
  <g id="Layer_1-2" data-name="Layer 1">
    <g>
      <text class="cls-2" transform="translate(122.63 74.07)"><tspan x="0" y="0">PLAN</tspan><tspan class="cls-5" x="137.32" y="0">T</tspan><tspan class="cls-6" x="166.09" y="0">A</tspan><tspan class="cls-7" x="201.85" y="0">S</tspan><tspan x="0" y="72.11">DE</tspan><tspan class="cls-4" x="0" y="144.22">L</tspan><tspan class="cls-3" x="26.57" y="144.22">U</tspan><tspan x="62.17" y="144.22">Z MÉXICO</tspan></text>
      <g id="upA75t.tif">
        <g>
          <path class="cls-1" d="M110.63,14.08c-1.7,.16-3.5,.02-5.08,.55-4.36,1.46-6.57,6.38-5.04,10.71,1.5,4.24,5.89,6.54,10.12,5.29,0-5.51,0-11.03,0-16.54Z"/>
          <path class="cls-1" d="M110.63,49.06c-3.86-3.88-8.51-1.93-9.86,1.1-1.16,2.59-.43,5.53,1.83,7.15,2.53,1.82,5.23,1.43,8.04-1.16v-7.09Z"/>
          <path class="cls-1" d="M110.63,158.71c-2.01-.9-3.94-.4-4.96,1.31-.74,1.22-.97,3.13-.63,4.53,.49,2.02,2.33,2.79,4.43,2.68,.39-.02,.78,0,1.17-.01v-8.51Z"/>
          <path class="cls-1" d="M110.63,182.81c-5.19,3.55-5.19,9.77,0,12.29v-12.29Z"/>
          <path class="cls-1" d="M110.63,84.03c-1.79-.22-2.63,.88-2.71,2.38-.09,1.71,1.01,2.64,2.71,2.82v-5.2Z"/>
          <path class="cls-1" d="M110.63,133.18c-1.43,.02-2.71,.71-2.39,2.12,.22,1,1.55,1.74,2.39,2.6,0-1.58,0-3.15,0-4.73Z"/>
          <path class="cls-1" d="M24.83,70.03c4.61,.02,8.65-3.99,8.61-8.55-.04-4.6-4.08-8.64-8.6-8.61-4.58,.03-8.65,4.09-8.63,8.6,.03,4.63,3.96,8.54,8.62,8.56Z"/>
          <path class="cls-1" d="M52.91,31.12c.07,4.72,4.01,8.53,8.7,8.4,4.7-.13,8.44-4.05,8.37-8.77-.08-4.72-3.95-8.4-8.74-8.32-4.78,.08-8.4,3.86-8.33,8.69Z"/>
          <path class="cls-1" d="M92.64,197.82c-4.85-.04-8.8,3.83-8.78,8.61,.02,4.51,3.86,8.33,8.5,8.44,4.59,.11,8.51-3.78,8.61-8.55,.1-4.55-3.73-8.46-8.33-8.51Z"/>
          <path class="cls-1" d="M47.69,198.5c4.74,0,8.58-3.83,8.54-8.52-.04-4.65-4.03-8.57-8.65-8.48-4.63,.08-8.34,3.84-8.36,8.47-.02,4.79,3.69,8.53,8.47,8.53Z"/>
          <path class="cls-1" d="M25.29,153.41c0-4.76-3.76-8.5-8.54-8.48-4.76,.02-8.51,3.83-8.44,8.58,.06,4.61,3.82,8.37,8.43,8.42,4.66,.05,8.56-3.83,8.55-8.53Z"/>
          <path class="cls-1" d="M0,106.37c-.04,4.76,3.69,8.55,8.45,8.58,4.71,.02,8.57-3.81,8.57-8.5,0-4.58-3.74-8.36-8.38-8.47C3.94,97.85,.04,101.64,0,106.37Z"/>
          <path class="cls-1" d="M67.61,185.46c-.03,3.81,3.31,7.23,7,7.19,3.69-.04,7.03-3.32,7.07-6.92,.04-3.78-3.32-7.19-7.04-7.16-3.74,.04-7,3.23-7.03,6.89Z"/>
          <path class="cls-1" d="M29.39,95.44c3.88,0,6.83-2.99,6.83-6.9,0-3.84-3.28-7.13-7.04-7.08-3.78,.06-6.96,3.18-6.98,6.86-.02,3.99,3.14,7.12,7.19,7.12Z"/>
          <path class="cls-1" d="M52.06,63.26c3.84-.04,6.77-3.05,6.78-6.96,0-3.97-3.03-6.91-7.08-6.87-3.83,.04-6.81,3.07-6.81,6.93,0,3.91,3.11,6.93,7.11,6.89Z"/>
          <path class="cls-1" d="M42.46,156.28c-3.85,.02-6.89,3.05-6.89,6.87,0,3.78,3.09,6.88,6.89,6.91,3.92,.03,7.05-3.12,6.98-7.03-.07-3.85-3.09-6.77-6.98-6.76Z"/>
          <path class="cls-1" d="M87.55,46.69c3.74-.06,6.83-3.27,6.76-7.03-.07-3.85-3.1-6.82-6.96-6.79-3.9,.03-7.06,3.26-6.92,7.1,.13,3.73,3.36,6.78,7.12,6.72Z"/>
          <path class="cls-1" d="M26.01,134.59c3.71,.02,6.91-3.16,6.94-6.89,.03-3.79-3.02-6.88-6.84-6.95-3.87-.07-7.1,3.11-7.08,6.97,.02,3.69,3.23,6.85,6.98,6.87Z"/>
          <path class="cls-1" d="M59.08,165.28c-.02,3.28,2.51,5.81,5.79,5.81,3.28,0,5.8-2.56,5.76-5.84-.04-3.18-2.5-5.65-5.67-5.69-3.29-.04-5.86,2.46-5.88,5.72Z"/>
          <path class="cls-1" d="M74.07,52.37c-3.2,.15-5.69,2.93-5.51,6.14,.17,3.1,2.85,5.58,5.94,5.49,3.2-.09,5.77-2.84,5.64-6.04-.12-3.22-2.86-5.75-6.07-5.59Z"/>
          <path class="cls-1" d="M44.32,134.99c-3.25-.03-5.9,2.55-5.92,5.74-.01,3.18,2.65,5.8,5.88,5.78,3.14-.02,5.71-2.51,5.79-5.63,.09-3.17-2.54-5.87-5.76-5.9Z"/>
          <path class="cls-1" d="M32.95,108.95c.01,3.26,2.6,5.83,5.84,5.79,3.22-.04,5.76-2.68,5.71-5.93-.05-3.14-2.57-5.64-5.73-5.68-3.23-.04-5.83,2.56-5.82,5.81Z"/>
          <path class="cls-1" d="M43.98,78.89c.06,3.34,2.54,5.79,5.84,5.77,3.25-.02,5.64-2.58,5.58-5.97-.06-3.12-2.6-5.52-5.82-5.53-3.13,0-5.65,2.58-5.59,5.72Z"/>
          <path class="cls-1" d="M89.45,176.59c.05,3.01,2.6,5.53,5.61,5.53,3.12,0,5.88-2.74,5.91-5.86,.02-3.12-2.78-5.73-6.03-5.62-3.06,.11-5.54,2.79-5.49,5.95Z"/>
          <path class="cls-1" d="M79.13,160.78c.02,2.38,2.19,4.45,4.63,4.44,2.38-.02,4.48-2.16,4.5-4.58,.02-2.41-2.06-4.49-4.52-4.53-2.53-.04-4.64,2.1-4.62,4.68Z"/>
          <path class="cls-1" d="M49.8,97.79c.01,2.41,2.14,4.5,4.55,4.46,2.42-.04,4.53-2.11,4.57-4.49,.04-2.48-2.17-4.66-4.69-4.59-2.4,.06-4.45,2.2-4.44,4.61Z"/>
          <path class="cls-1" d="M87.58,66.13c.06,2.47,2.13,4.4,4.64,4.32,2.53-.08,4.38-2.08,4.28-4.63-.1-2.41-2.05-4.27-4.46-4.24-2.47,.03-4.52,2.12-4.46,4.54Z"/>
          <path class="cls-1" d="M62.8,141.65c-2.5,0-4.51,2.04-4.46,4.51,.05,2.44,2.21,4.51,4.61,4.42,2.37-.08,4.27-2.05,4.29-4.45,.02-2.54-1.91-4.49-4.44-4.48Z"/>
          <path class="cls-1" d="M52.03,118.54c-2.49,.03-4.43,2.06-4.37,4.57,.05,2.49,2.13,4.47,4.58,4.37,2.34-.09,4.31-2.13,4.31-4.47,0-2.45-2.07-4.51-4.52-4.48Z"/>
          <path class="cls-1" d="M64.56,76.65c-.05,2.48,1.94,4.53,4.41,4.55,2.4,.02,4.35-1.84,4.45-4.25,.1-2.5-1.81-4.61-4.26-4.7-2.42-.09-4.55,1.94-4.6,4.4Z"/>
          <path class="cls-1" d="M80.84,79.87c-.05,1.98,1.55,3.65,3.52,3.67,1.96,.02,3.6-1.63,3.59-3.6-.01-1.9-1.51-3.44-3.41-3.51-2.01-.07-3.66,1.46-3.7,3.45Z"/>
          <path class="cls-1" d="M78.7,149.24c1.97,.01,3.6-1.63,3.59-3.61-.02-1.99-1.65-3.56-3.66-3.51-1.91,.05-3.42,1.56-3.46,3.46-.04,1.98,1.56,3.64,3.53,3.66Z"/>
          <path class="cls-1" d="M100.25,76.67c-.02,1.96,1.63,3.6,3.6,3.59,1.9-.01,3.44-1.5,3.51-3.41,.08-2.02-1.45-3.66-3.45-3.7-1.98-.04-3.65,1.56-3.67,3.53Z"/>
          <path class="cls-1" d="M59.1,111.09c-.04,1.99,1.55,3.64,3.53,3.65,1.98,.02,3.6-1.61,3.59-3.6-.01-1.9-1.51-3.44-3.41-3.51-2-.08-3.66,1.47-3.7,3.46Z"/>
          <path class="cls-1" d="M66.09,126.87c-1.97,.02-3.62,1.7-3.56,3.63,.06,1.92,1.84,3.58,3.74,3.49,1.87-.08,3.36-1.66,3.38-3.56,.01-2.05-1.52-3.59-3.56-3.57Z"/>
          <path class="cls-1" d="M69.51,89.12c-2.01-.06-3.69,1.52-3.69,3.45,0,1.83,1.59,3.48,3.4,3.54,2,.07,3.63-1.5,3.63-3.49,0-1.94-1.44-3.44-3.35-3.5Z"/>
          <path class="cls-1" d="M93.73,152.39c.05,1.84,1.64,3.34,3.54,3.36,1.97,.02,3.49-1.6,3.44-3.65-.05-1.98-1.68-3.43-3.74-3.32-1.87,.1-3.29,1.69-3.24,3.61Z"/>
          <path class="cls-1" d="M90.58,145.14c1.66-.2,2.57-1.3,2.48-2.98-.09-1.64-1.24-2.5-2.85-2.48-1.7,.02-2.64,1.09-2.59,2.69,.05,1.67,1.02,2.74,2.97,2.77Z"/>
          <path class="cls-1" d="M81.42,95.56c1.25-1.66,2.4-2.53,2.58-3.58,.25-1.5-.71-2.71-2.44-2.85-1.59-.13-3.3,1.28-2.89,2.65,.34,1.14,1.45,2.05,2.75,3.78Z"/>
          <path class="cls-1" d="M80.83,133c-1.04-.69-2.04-1.84-3.14-1.96-1.55-.16-2.6,1.03-2.52,2.74,.08,1.6,1.18,2.66,2.59,2.42,1.11-.18,2.06-1.33,3.08-2.05,0-.39-.01-.77-.02-1.16Z"/>
          <path class="cls-1" d="M68.38,120.21c.77,.55,1.72,1.75,2.82,1.89,1.53,.21,2.62-.93,2.6-2.66-.03-1.61-1.01-2.51-2.51-2.57-1.65-.06-2.57,.94-2.91,3.33Z"/>
          <path class="cls-1" d="M69.8,103.45c.25,2.46,1.14,3.41,2.84,3.35,1.57-.05,2.49-.99,2.52-2.54,.03-1.68-1.02-2.87-2.6-2.63-1.1,.17-2.05,1.32-2.76,1.82Z"/>
          <path class="cls-1" d="M108.38,144.54c-.07-2.52-.99-3.5-2.64-3.52-1.52-.02-2.55,.86-2.65,2.44-.11,1.69,.92,2.91,2.48,2.77,1.1-.1,2.11-1.24,2.82-1.69Z"/>
          <path class="cls-1" d="M94.48,82.49c-.47,.74-1.58,1.75-1.69,2.85-.16,1.59,1.07,2.57,2.75,2.47,1.57-.1,2.43-1.08,2.42-2.64-.02-1.7-1.03-2.53-3.48-2.68Z"/>
          <path class="cls-1" d="M76.45,124.24c1.51,1.09,2.41,2.23,3.17,2.14,.81-.09,2.08-1.34,2.08-2.09,0-.77-1.22-2.04-2.03-2.15-.75-.1-1.68,1.03-3.22,2.1Z"/>
          <path class="cls-1" d="M81.76,104.38c1.04-1.51,2.19-2.44,2.09-3.21-.1-.82-1.38-2.07-2.15-2.07-.75,0-2.01,1.29-2.09,2.11-.08,.78,1.08,1.69,2.15,3.17Z"/>
          <path class="cls-1" d="M97.91,134.8c-.54,.87-1.59,1.81-1.47,2.58,.12,.81,1.35,1.46,2.09,2.19,.72-.76,1.94-1.46,2.03-2.28,.08-.77-1.04-1.67-1.63-2.51-.34,0-.68,.01-1.01,.02Z"/>
          <path class="cls-1" d="M90.86,90.34c-1.09,1.54-2.24,2.45-2.15,3.22,.1,.83,1.33,2.11,2.09,2.12,.75,.01,2.03-1.24,2.14-2.06,.1-.77-1.02-1.7-2.08-3.27Z"/>
          <path class="cls-1" d="M77.81,115.09c.6-.83,1.51-1.58,1.71-2.5,.3-1.34-.68-2.42-2-2.16-.87,.17-2.06,1.21-2.18,2.01-.12,.77,.93,1.73,1.47,2.6,.33,.01,.67,.03,1,.04Z"/>
          <path class="cls-1" d="M84.04,133.37c1.56,1.05,2.48,2.15,3.25,2.06,.81-.1,2.06-1.35,2.05-2.08,0-.74-1.27-1.97-2.08-2.06-.77-.09-1.68,1.02-3.22,2.09Z"/>
          <path class="cls-1" d="M99.68,91.49c1.26,.92,2.16,2.02,2.69,1.86,.9-.27,1.56-1.32,2.32-2.05-.72-.68-1.42-1.86-2.17-1.9-.74-.04-1.55,1.08-2.83,2.09Z"/>
        </g>
      </g>
    </g>
  </g>
</svg>